<svg width="887" height="207" viewBox="0 0 887 207" version="1.1" xmlns="http://www.w3.org/2000/svg" xmlns:xlink="http://www.w3.org/1999/xlink">
<title>LOGO_warwerit_feradi</title>
<desc>Created using Figma</desc>
<g id="Canvas" transform="translate(-806 2552)">
<g id="LOGO_warwerit_feradi">
<g id="Canvas">
<g id="LOGO 2 feradi">
<g id="Vector">
<g id="Vector">
<use xlink:href="#path0_fill" transform="translate(1105 -2523)" fill="#FFFFFF"/>
</g>
</g>
<g id="Group">
<g id="Vector">
<g id="Vector">
<use xlink:href="#path1_fill" transform="translate(873.9 -2552)" fill="#45C4D9"/>
</g>
</g>
<g id="Vector">
<g id="Vector">
<use xlink:href="#path2_fill" transform="translate(806 -2503.04)" fill="#393458"/>
</g>
</g>
<g id="Vector">
<g id="Vector">
<use xlink:href="#path3_fill" transform="translate(831.7 -2430)" fill="#B29EEB"/>
</g>
</g>
<g id="Vector">
<g id="Vector">
<use xlink:href="#path4_fill" transform="translate(915.3 -2429)" fill="#E33F7B"/>
</g>
</g>
<g id="Vector">
<g id="Vector">
<use xlink:href="#path5_fill" transform="translate(927.5 -2502.64)" fill="#FEC40D"/>
</g>
</g>
</g>
</g>
</g>
</g>
</g>
<defs>
<path id="path0_fill" d="M 11.7 0.390001L 25.35 27.066L 39.234 0.390001L 50.856 0.390001L 30.732 36.426L 30.732 55.77L 20.046 55.77L 20.046 36.27L 2.63629e-17 0.390001L 11.7 0.390001ZM 80.7538 56.16C 76.6978 56.16 73.0058 55.38 69.6778 53.82C 66.4018 52.208 63.5678 50.102 61.1758 47.502C 58.8358 44.85 57.0158 41.834 55.7158 38.454C 54.4158 35.074 53.7658 31.616 53.7658 28.08C 53.7658 24.388 54.4418 20.852 55.7938 17.472C 57.1978 14.092 59.0958 11.102 61.4878 8.502C 63.9318 5.902 66.8178 3.848 70.1458 2.34C 73.4738 0.78 77.0878 -2.7037e-15 80.9878 -2.7037e-15C 84.9918 -2.7037e-15 88.6318 0.832 91.9078 2.496C 95.2358 4.108 98.0698 6.24 100.41 8.892C 102.75 11.544 104.57 14.56 105.87 17.94C 107.17 21.32 107.82 24.752 107.82 28.236C 107.82 31.928 107.144 35.464 105.792 38.844C 104.44 42.172 102.568 45.136 100.176 47.736C 97.7838 50.284 94.9238 52.338 91.5958 53.898C 88.2678 55.406 84.6538 56.16 80.7538 56.16ZM 64.6858 28.08C 64.6858 30.472 65.0498 32.786 65.7778 35.022C 66.5058 37.258 67.5458 39.234 68.8978 40.95C 70.3018 42.666 71.9918 44.044 73.9678 45.084C 75.9958 46.124 78.2838 46.644 80.8318 46.644C 83.4318 46.644 85.7198 46.124 87.6958 45.084C 89.7238 43.992 91.4138 42.562 92.7658 40.794C 94.1698 39.026 95.2098 37.05 95.8858 34.866C 96.6138 32.63 96.9778 30.368 96.9778 28.08C 96.9778 25.688 96.5878 23.374 95.8078 21.138C 95.0798 18.902 94.0138 16.926 92.6098 15.21C 91.2578 13.494 89.5678 12.142 87.5398 11.154C 85.5638 10.114 83.3278 9.594 80.8318 9.594C 78.2318 9.594 75.9178 10.14 73.8898 11.232C 71.8618 12.272 70.1718 13.676 68.8198 15.444C 67.4678 17.16 66.4278 19.136 65.6998 21.372C 65.0238 23.556 64.6858 25.792 64.6858 28.08ZM 143.377 46.644C 145.925 46.644 148.057 46.124 149.773 45.084C 151.541 44.044 152.945 42.692 153.985 41.028C 155.077 39.364 155.831 37.466 156.247 35.334C 156.715 33.15 156.949 30.914 156.949 28.626L 156.949 0.390001L 167.635 0.390001L 167.635 28.626C 167.635 32.422 167.167 35.984 166.231 39.312C 165.347 42.64 163.917 45.552 161.941 48.048C 160.017 50.544 157.521 52.52 154.453 53.976C 151.385 55.432 147.719 56.16 143.455 56.16C 139.035 56.16 135.265 55.406 132.145 53.898C 129.077 52.338 126.581 50.31 124.657 47.814C 122.733 45.266 121.329 42.328 120.445 39C 119.613 35.672 119.197 32.214 119.197 28.626L 119.197 0.390001L 129.961 0.390001L 129.961 28.626C 129.961 30.966 130.169 33.228 130.585 35.412C 131.053 37.544 131.807 39.442 132.847 41.106C 133.939 42.77 135.343 44.122 137.059 45.162C 138.775 46.15 140.881 46.644 143.377 46.644ZM 182.377 55.77L 182.377 0.390001L 206.869 0.390001C 209.417 0.390001 211.757 0.936 213.889 2.028C 216.073 3.068 217.945 4.472 219.505 6.24C 221.065 7.956 222.287 9.932 223.171 12.168C 224.055 14.352 224.497 16.562 224.497 18.798C 224.497 22.386 223.587 25.662 221.767 28.626C 219.999 31.538 217.581 33.644 214.513 34.944L 227.149 55.77L 215.059 55.77L 203.749 37.206L 193.141 37.206L 193.141 55.77L 182.377 55.77ZM 193.141 27.768L 206.635 27.768C 207.623 27.768 208.533 27.534 209.365 27.066C 210.249 26.598 211.003 25.974 211.627 25.194C 212.251 24.362 212.745 23.4 213.109 22.308C 213.473 21.216 213.655 20.046 213.655 18.798C 213.655 17.498 213.447 16.302 213.031 15.21C 212.615 14.118 212.043 13.182 211.315 12.402C 210.639 11.57 209.833 10.946 208.897 10.53C 208.013 10.062 207.103 9.828 206.167 9.828L 193.141 9.828L 193.141 27.768ZM 5.46 147.77L 5.46 92.39L 16.224 92.39L 16.224 147.77L 5.46 147.77ZM 42.4424 112.28L 42.4424 147.77L 31.6784 147.77L 31.6784 92.39L 40.0244 92.39L 68.8844 128.738L 68.8844 92.468L 79.6484 92.468L 79.6484 147.77L 70.9124 147.77L 42.4424 112.28ZM 100.763 92.39L 115.739 134.276L 130.559 92.39L 141.869 92.39L 120.263 147.77L 111.215 147.77L 89.4526 92.39L 100.763 92.39ZM 173.257 148.16C 169.201 148.16 165.509 147.38 162.181 145.82C 158.905 144.208 156.071 142.102 153.679 139.502C 151.339 136.85 149.519 133.834 148.219 130.454C 146.919 127.074 146.269 123.616 146.269 120.08C 146.269 116.388 146.945 112.852 148.297 109.472C 149.701 106.092 151.599 103.102 153.991 100.502C 156.435 97.902 159.321 95.848 162.649 94.34C 165.977 92.78 169.591 92 173.491 92C 177.495 92 181.135 92.832 184.411 94.496C 187.739 96.108 190.573 98.24 192.913 100.892C 195.253 103.544 197.073 106.56 198.373 109.94C 199.673 113.32 200.323 116.752 200.323 120.236C 200.323 123.928 199.647 127.464 198.295 130.844C 196.943 134.172 195.071 137.136 192.679 139.736C 190.287 142.284 187.427 144.338 184.099 145.898C 180.771 147.406 177.157 148.16 173.257 148.16ZM 157.189 120.08C 157.189 122.472 157.553 124.786 158.281 127.022C 159.009 129.258 160.049 131.234 161.401 132.95C 162.805 134.666 164.495 136.044 166.471 137.084C 168.499 138.124 170.787 138.644 173.335 138.644C 175.935 138.644 178.223 138.124 180.199 137.084C 182.227 135.992 183.917 134.562 185.269 132.794C 186.673 131.026 187.713 129.05 188.389 126.866C 189.117 124.63 189.481 122.368 189.481 120.08C 189.481 117.688 189.091 115.374 188.311 113.138C 187.583 110.902 186.517 108.926 185.113 107.21C 183.761 105.494 182.071 104.142 180.043 103.154C 178.067 102.114 175.831 101.594 173.335 101.594C 170.735 101.594 168.421 102.14 166.393 103.232C 164.365 104.272 162.675 105.676 161.323 107.444C 159.971 109.16 158.931 111.136 158.203 113.372C 157.527 115.556 157.189 117.792 157.189 120.08ZM 212.48 147.77L 212.48 92.39L 223.244 92.39L 223.244 138.332L 251.48 138.332L 251.48 147.77L 212.48 147.77ZM 258.941 92.39L 273.917 134.276L 288.737 92.39L 300.047 92.39L 278.441 147.77L 269.393 147.77L 247.631 92.39L 258.941 92.39ZM 348.312 138.332L 348.312 147.77L 309.858 147.77L 309.858 92.39L 347.61 92.39L 347.61 101.828L 320.622 101.828L 320.622 115.166L 343.944 115.166L 343.944 123.902L 320.622 123.902L 320.622 138.332L 348.312 138.332ZM 405.766 147.77L 405.766 111.11L 391.492 138.41L 385.642 138.41L 371.368 111.11L 371.368 147.77L 360.604 147.77L 360.604 92.39L 372.148 92.39L 388.528 123.902L 405.064 92.39L 416.53 92.39L 416.53 147.77L 405.766 147.77ZM 470.446 138.332L 470.446 147.77L 431.992 147.77L 431.992 92.39L 469.744 92.39L 469.744 101.828L 442.756 101.828L 442.756 115.166L 466.078 115.166L 466.078 123.902L 442.756 123.902L 442.756 138.332L 470.446 138.332ZM 493.502 112.28L 493.502 147.77L 482.738 147.77L 482.738 92.39L 491.084 92.39L 519.944 128.738L 519.944 92.468L 530.708 92.468L 530.708 147.77L 521.972 147.77L 493.502 112.28ZM 587.546 101.828L 569.84 101.828L 569.84 147.77L 559.154 147.77L 559.154 101.828L 541.448 101.828L 541.448 92.39L 587.546 92.39L 587.546 101.828Z"/>
<path id="path1_fill" d="M 78 39C 78 17.4 60.5 0 39 0C 17.5 0 -4.78311e-14 17.5 -4.78311e-14 39C -4.78311e-14 55.8 10.6 70.1 25.4 75.6L 36.2 90.3L 39.5 94.9L 42.7 90.2L 52.7 75.5C 67.5 70 78 55.8 78 39ZM 48.9 68.5L 47.6 68.9L 46.8 70L 39.3 81.1L 31.1 69.9L 30.3 68.9L 29.1 68.5C 16.9 64.4 8 52.7 8 39C 8 21.9 21.9 8 39 8C 56.1 8 70 21.9 70 39C 70 52.7 61.1 64.3 48.9 68.5Z"/>
<path id="path2_fill" d="M 51.1314 1.94142C 30.6314 -4.75857 8.63141 6.44143 1.93141 26.9414C -4.76859 47.4414 6.53141 69.4414 27.0314 76.1414C 43.0314 81.3414 59.8314 75.6414 69.7314 63.2414L 87.0314 57.5414L 92.4314 55.7414L 88.9314 51.2414L 78.0314 37.2414C 77.3314 21.5414 67.0314 7.14142 51.1314 1.94142ZM 70.1314 38.7414L 70.1314 40.0414L 70.9314 41.1414L 79.1314 51.7414L 66.0314 56.0414L 64.8314 56.4414L 64.0314 57.4414C 56.3314 67.8414 42.5314 72.7414 29.4314 68.5414C 13.2314 63.2414 4.23141 45.7414 9.53141 29.4414C 14.8314 13.1414 32.3314 4.24142 48.6314 9.54142C 61.6314 13.7414 69.9314 25.7414 70.1314 38.7414Z"/>
<path id="path3_fill" d="M 7.47074 22.7C -5.22926 40.1 -1.32925 64.5 16.0707 77.2C 33.4707 89.9 57.8707 86 70.5707 68.5C 80.4707 54.9 80.2707 37.1 71.4707 23.9L 71.3707 5.7L 71.3707 0L 66.0707 1.9L 49.3707 8C 34.1707 3.8 17.2707 9.2 7.47074 22.7ZM 48.3707 16L 49.6707 16.4L 50.9707 15.9L 49.5707 12.1L 50.9707 15.9L 63.5707 11.4L 63.5707 25.2L 63.5707 26.5L 64.2707 27.5L 67.5707 25.2L 64.2707 27.5C 71.8707 38.1 72.1707 52.7 64.0707 63.8C 53.9707 77.7 34.5707 80.7 20.7707 70.7C 6.97075 60.6 3.87074 41.2 13.9707 27.4C 21.9707 16.4 35.9707 12.2 48.3707 16Z"/>
<path id="path4_fill" d="M 7.49161 67.8C 20.1916 85.2 44.5916 89.1 61.9916 76.5C 79.3916 63.8 83.2916 39.4 70.5916 22C 60.6916 8.4 43.7916 3.1 28.4916 7.3L 11.0916 1.7L 5.69161 0L 5.8916 5.7L 6.3916 23.4C -2.2084 36.6 -2.40839 54.3 7.49161 67.8ZM 13.6916 26.9L 14.4916 25.8L 14.4916 24.5L 10.4916 24.6L 14.4916 24.5L 14.0916 11.1L 27.1916 15.3L 28.3916 15.7L 29.5916 15.3L 28.3916 11.5L 29.5916 15.3C 41.9916 11.4 55.9916 15.6 64.0916 26.7C 74.1916 40.6 71.0916 60 57.2916 70C 43.4916 80.1 24.0916 77 13.9916 63.1C 5.89161 52.1 6.19161 37.5 13.6916 26.9Z"/>
<path id="path5_fill" d="M 65 76.1414C 85.5 69.4414 96.7 47.4414 90.1 26.9414C 83.4 6.44143 61.4 -4.75858 40.9 1.94142C 24.9 7.14142 14.6 21.6414 14 37.4414L 3.3 52.2414L -7.33991e-22 56.8414L 5.4 58.4414L 22.4 63.4414C 32.3 75.7414 49.1 81.3414 65 76.1414ZM 28 57.5414L 27.2 56.4414L 25.9 56.0414L 24.8 59.8414L 25.9 56.0414L 13 52.3414L 21.1 41.1414L 21.8 40.1414L 21.8 38.8414L 17.8 38.8414L 21.8 38.8414C 21.9 25.8414 30.2 13.8414 43.3 9.54142C 59.6 4.24142 77.1 13.1414 82.4 29.4414C 87.7 45.7414 78.8 63.2414 62.5 68.5414C 49.5 72.7414 35.7 67.9414 28 57.5414Z"/>
</defs>
</svg>
